<svg width="611" height="266" viewBox="0 0 611 266" fill="none" xmlns="http://www.w3.org/2000/svg">
<line x1="532" y1="39.5" x2="611" y2="39.5" stroke="#10375C" stroke-width="9"/>
<line x1="452" y1="216.5" x2="572" y2="216.5" stroke="#10375C" stroke-width="9"/>
<line x1="536.013" y1="148.964" x2="570.013" y2="215.964" stroke="#10375C" stroke-width="9"/>
<line x1="532" y1="4.5" x2="611" y2="4.5" stroke="#10375C" stroke-width="9"/>
<line x1="606.5" y1="41" x2="606.5" y2="5" stroke="#10375C" stroke-width="9"/>
<line x1="606.5" y1="151" x2="606.5" y2="59" stroke="#10375C" stroke-width="9"/>
<line x1="568.069" y1="218.81" x2="607.069" y2="148.81" stroke="#10375C" stroke-width="9"/>
<line x1="536.5" y1="151" x2="536.5" y2="41" stroke="#10375C" stroke-width="9"/>
<path d="M61.8 89.8C63.1333 86.7333 65.4 85.2 68.6 85.2C70.6 85.2 72.2 85.8667 73.4 87.2C74.6 88.5333 75.2 90 75.2 91.6C75.2 92.8 74.8667 93.9333 74.2 95L60.4 113.4H51.6L61.8 89.8ZM92.6 221C78.2 222.467 67.8 223.2 61.4 223.2C47.4 223.2 36.2667 220.6 28 215.4C19.7333 210.2 15.6 200.8 15.6 187.2V170.6C15.6 157.4 20.2 148.533 29.4 144C33.8 141.733 39.4 140.6 46.2 140.6C52.4667 140.6 58.8 141.667 65.2 143.8C71.6 145.8 77 148.467 81.4 151.8C81.4 144.467 79.2667 138.667 75 134.4C70.7333 130 62.5333 127.8 50.4 127.8L51 119.2C63.8 119.2 73.2 121.267 79.2 125.4C85.3333 129.4 89.0667 134.2 90.4 139.8C91.8667 145.4 92.6 152.6 92.6 161.4V221ZM81.4 160.4C75.9333 157.867 70.0667 155.667 63.8 153.8C57.6667 151.933 52 151 46.8 151C33.3333 151 26.6 157.733 26.6 171.2V188.6C26.6 197.267 29.6 203.6 35.6 207.6C41.6 211.467 50.1333 213.4 61.2 213.4C66.9333 213.4 73.6667 212.867 81.4 211.8V160.4ZM157.619 254.4C166.419 251.067 170.819 244.133 170.819 233.6V208.8C165.219 218.533 156.219 223.4 143.819 223.4C132.085 223.4 122.952 220.2 116.419 213.8C109.885 207.4 106.619 198.067 106.619 185.8V156C106.619 144.267 110.019 135.2 116.819 128.8C123.752 122.267 133.019 119 144.619 119C157.019 119 166.019 123.467 171.619 132.4L170.819 120.8H182.019V233.8C182.019 241.8 180.352 248.067 177.019 252.6C173.685 257.133 168.219 260.6 160.619 263L157.619 254.4ZM170.819 153.8C170.819 145.533 168.152 139.4 162.819 135.4C157.485 131.267 151.152 129.2 143.819 129.2C136.752 129.2 130.619 131.4 125.419 135.8C120.352 140.067 117.819 147.133 117.819 157V187.6C117.819 196 120.152 202.333 124.819 206.6C129.619 210.867 135.952 213 143.819 213C151.285 213 157.619 210.733 162.819 206.2C168.152 201.533 170.819 194.933 170.819 186.4V153.8ZM275.942 184.2C275.942 195.4 272.876 204.667 266.742 212C260.609 219.333 251.342 223 238.942 223C226.542 223 217.142 219.333 210.742 212C204.476 204.533 201.342 195.267 201.342 184.2V157.8C201.342 145.133 204.542 135.467 210.942 128.8C217.476 122 226.809 118.6 238.942 118.6C250.542 118.6 259.609 122.133 266.142 129.2C272.676 136.133 275.942 145.667 275.942 157.8V184.2ZM264.742 157.8C264.742 147.8 262.409 140.467 257.742 135.8C253.209 131.133 246.942 128.8 238.942 128.8C230.676 128.8 224.209 131.133 219.542 135.8C214.876 140.467 212.542 147.8 212.542 157.8V186.2C212.542 194.2 214.876 200.667 219.542 205.6C224.342 210.533 230.809 213 238.942 213C247.209 213 253.542 210.6 257.942 205.8C262.476 200.867 264.742 194.333 264.742 186.2V157.8ZM294.817 120.8H306.017L305.417 127.8C311.684 121.933 319.884 119 330.017 119C333.617 119 338.551 119.6 344.817 120.8L341.817 131C337.551 129.667 333.084 129 328.417 129C322.284 129 317.017 130.133 312.617 132.4C308.217 134.667 306.017 138.067 306.017 142.6V221H294.817V120.8ZM413.306 221C398.906 222.467 388.506 223.2 382.106 223.2C368.106 223.2 356.973 220.6 348.706 215.4C340.44 210.2 336.306 200.8 336.306 187.2V170.6C336.306 157.4 340.906 148.533 350.106 144C354.506 141.733 360.106 140.6 366.906 140.6C373.173 140.6 379.506 141.667 385.906 143.8C392.306 145.8 397.706 148.467 402.106 151.8C402.106 144.467 399.973 138.667 395.706 134.4C391.44 130 383.24 127.8 371.106 127.8L371.706 119.2C384.506 119.2 393.906 121.267 399.906 125.4C406.04 129.4 409.773 134.2 411.106 139.8C412.573 145.4 413.306 152.6 413.306 161.4V221ZM402.106 160.4C396.64 157.867 390.773 155.667 384.506 153.8C378.373 151.933 372.706 151 367.506 151C354.04 151 347.306 157.733 347.306 171.2V188.6C347.306 197.267 350.306 203.6 356.306 207.6C362.306 211.467 370.84 213.4 381.906 213.4C387.64 213.4 394.373 212.867 402.106 211.8V160.4Z" fill="#10375C"/>
</svg>
